<svg width="580" height="770" viewBox="0 0 580 770" fill="none" xmlns="http://www.w3.org/2000/svg">
<path d="M661.491 127.533C659.479 125.049 657.467 122.694 655.356 120.189L343.573 764.767C346.597 765.375 349.578 765.833 352.525 766.315L661.491 127.533ZM642.423 105.979C640.312 103.776 638.139 101.556 635.96 99.3776L317.007 758.732C319.928 759.559 322.772 760.255 325.616 760.956L642.423 105.979ZM601.239 69.1278C598.899 67.361 596.552 65.5523 594.143 63.7855L266.88 740.531C269.491 741.731 272.136 742.864 274.82 744.039L601.239 69.1278ZM679.491 151.396C677.578 148.651 675.665 145.927 673.722 143.288L371.258 768.644C374.381 768.905 377.461 769.169 380.603 769.341L679.491 151.396ZM579.293 53.6547C576.777 52.0221 574.326 50.4526 571.818 48.904L243.12 728.503C245.696 729.943 248.243 731.315 250.861 732.708L579.293 53.6547ZM622.32 86.5441C620.071 84.5171 617.83 82.5992 615.521 80.5722L291.468 750.624C294.217 751.606 296.969 752.542 299.748 753.457L622.32 86.5399V86.5441ZM696.211 177.768C694.467 174.784 692.692 171.754 690.92 168.854L400.111 770C403.332 770 406.581 769.958 409.864 769.87L696.211 177.763V177.768ZM748.187 436.25C749.217 428.054 749.962 419.774 750.458 411.515L616.521 688.605C622.419 683.506 628.218 678.231 633.845 672.654L748.187 436.25ZM732.199 510.368L680.827 616.695C691.649 600.785 701.502 583.768 710.244 565.701C718.998 547.613 726.301 529.135 732.199 510.372V510.368ZM751 369.523C750.763 363.509 750.424 357.604 749.958 351.674L571.012 721.621C575.769 718.721 580.43 715.67 585.088 712.577L751 369.518V369.523ZM737.024 276.469C735.883 272.218 734.676 267.992 733.405 263.766L495.544 755.664C499.362 754.464 503.217 753.18 507.043 751.807L737.024 276.469ZM746.033 318.789C745.232 313.841 744.358 309.027 743.418 304.189L531.566 742.197C535.758 740.346 539.911 738.403 544.034 736.355L746.033 318.789ZM725.289 239.572C723.953 235.913 722.476 232.207 721.006 228.501L461.962 764.049C465.55 763.373 469.169 762.61 472.685 761.716L725.285 239.568L725.289 239.572ZM711.55 207.014C710.015 203.703 708.37 200.304 706.725 197.014L430.269 768.628C433.689 768.321 437.068 767.952 440.488 767.516L711.558 207.01L711.55 207.014ZM507.81 18.3269C505.065 17.3239 502.278 16.409 499.503 15.4942L177.47 681.324C179.715 683.33 181.959 685.357 184.238 687.338L507.81 18.3269ZM266.273 29.7042C262.051 31.664 257.828 33.691 253.675 35.8733L55.3214 445.831C56.0582 450.821 56.898 455.899 57.799 460.801L266.273 29.7042ZM336.408 6.66854C332.789 7.38617 329.174 8.25908 325.555 9.08583L75.3938 526.378C76.7376 530.084 78.1424 533.873 79.616 537.579L336.408 6.66854ZM302.6 15.6243C298.744 16.8875 294.858 18.1759 291.071 19.5692L63.9337 489.023C65.037 493.275 66.2433 497.568 67.4802 501.794L302.6 15.6243ZM226.262 51.3843C221.436 54.4562 216.676 57.5953 212.018 60.9275L51 393.834C51.0993 399.957 51.4008 406.08 51.8017 412.207L226.258 51.3884L226.262 51.3843ZM556.342 39.986C553.796 38.5927 551.177 37.1533 548.669 35.8691L220.291 714.662C222.772 716.32 225.215 717.844 227.701 719.413L556.338 39.9902L556.342 39.986ZM179.814 86.5147C173.58 92.0502 167.583 97.9339 161.719 103.906L55.2527 324.056C54.012 332.73 53.0118 341.468 52.275 350.163L179.814 86.5189V86.5147ZM79.0815 233.747L106.934 176.106C101.67 185.17 96.6459 194.584 91.916 204.282C87.2586 214.002 82.9372 223.851 79.0815 233.747ZM482.149 10.3742C479.263 9.65658 476.38 8.93475 473.536 8.28007L157.497 661.667C159.574 663.891 161.753 666.069 163.929 668.268L482.149 10.3742ZM455.438 4.64154C452.426 4.11695 449.44 3.63853 446.417 3.22306L138.558 639.806C140.54 642.312 142.582 644.775 144.594 647.171L455.438 4.64154ZM532.582 28.1975C529.894 26.9973 527.218 25.8222 524.504 24.7101L198.447 698.975C200.757 700.826 203.135 702.593 205.513 704.313L532.582 28.1975ZM368.345 1.72064C364.894 2.08995 361.447 2.48444 358.087 2.96286L88.9307 559.435C90.473 562.747 92.084 566.146 93.7217 569.461L368.345 1.72064ZM398.675 0C395.384 0 392.132 0.109114 388.853 0.218228L104.117 588.988C105.823 592.06 107.594 595.111 109.408 598.074L398.671 0H398.675ZM427.627 1.13311C424.543 0.826748 421.393 0.587536 418.24 0.436456L120.7 615.705C122.578 618.428 124.487 621.11 126.43 623.875L427.627 1.13311Z" fill="url(#paint0_linear_71_22)" fill-opacity="0.44"/>
<defs>
<linearGradient id="paint0_linear_71_22" x1="735.761" y1="272.396" x2="56.0562" y2="461.427" gradientUnits="userSpaceOnUse">
<stop stop-color="#4D7FFF"/>
<stop offset="1" stop-color="#18A9F0"/>
</linearGradient>
</defs>
</svg>
