<svg width="942" height="1184" viewBox="0 0 942 1184" fill="none" xmlns="http://www.w3.org/2000/svg">
<g clip-path="url(#clip0_71_71)">
<path d="M110.597 1152.97C148.089 1152.97 215.313 1107.34 299.896 1024.47C468.13 859.666 651.833 598.146 709.409 441.486C728.143 390.485 731.861 354.66 720.145 337.871C715.016 330.528 707.054 326.798 696.474 326.798C658.982 326.798 591.758 372.429 507.175 455.297C338.942 620.101 155.226 881.632 97.662 1038.28C78.9282 1089.28 75.2101 1125.11 86.9261 1141.9C92.0549 1149.24 100.017 1152.97 110.597 1152.97ZM696.486 328.747C706.397 328.747 713.821 332.191 718.555 338.983C729.889 355.222 726.099 390.438 707.58 440.804C650.1 597.238 466.599 858.434 298.533 1023.06C215.528 1104.37 147.025 1151 110.597 1151C100.687 1151 93.2625 1147.55 88.5282 1140.76C77.1946 1124.52 80.9844 1089.31 99.5031 1038.94C156.984 882.505 340.484 621.309 508.55 456.672C591.555 375.371 660.046 328.735 696.486 328.735V328.747Z" fill="url(#paint0_linear_71_71)"/>
<path d="M118.046 1158.45C137.174 1158.45 163.679 1146.85 196.806 1123.96C230.974 1100.35 270.522 1065.89 314.338 1021.53C483.887 849.848 664.494 581.74 716.917 423.848C733.427 374.115 735.806 339.019 723.78 322.349C718.34 314.816 710.079 310.989 699.212 310.989C680.083 310.989 653.579 322.588 620.451 345.476C586.283 369.081 546.735 403.543 502.919 447.907C333.371 619.587 152.763 887.707 100.328 1045.59C83.8179 1095.32 81.4388 1130.42 93.4657 1147.07C98.9053 1154.61 107.166 1158.43 118.034 1158.43L118.046 1158.45ZM699.224 312.998C709.409 312.998 717.132 316.538 722.166 323.521C733.798 339.64 731.323 374.115 715.028 423.214C662.677 580.855 482.296 848.629 312.915 1020.12C227.352 1106.75 156.326 1156.44 118.058 1156.44C107.872 1156.44 100.149 1152.9 95.1155 1145.91C83.4832 1129.79 85.9578 1095.32 102.253 1046.22C154.605 888.58 334.985 620.807 504.366 449.318C589.929 362.683 660.955 312.998 699.224 312.998Z" fill="url(#paint1_linear_71_71)"/>
<path d="M126.199 1163.48C167.002 1163.48 241.112 1110.41 329.509 1017.88C500.074 839.337 677.011 564.867 723.923 406.031C738.401 357.003 739.405 323.653 726.888 306.9C721.114 299.163 712.518 295.241 701.34 295.241C660.537 295.241 586.426 348.31 498.03 440.84C327.465 619.384 150.528 893.865 103.616 1052.7C89.1379 1101.73 88.1457 1135.08 100.651 1151.83C106.425 1159.57 115.021 1163.49 126.199 1163.49V1163.48ZM701.328 297.297C711.824 297.297 719.87 300.945 725.238 308.131C737.169 324.107 736.034 357.757 721.95 405.457C675.122 564.03 498.4 838.13 328.027 1016.47C240.013 1108.59 166.452 1161.44 126.211 1161.44C115.714 1161.44 107.669 1157.79 102.301 1150.6C90.3693 1134.63 91.5051 1100.98 105.588 1053.29C152.417 894.714 329.138 620.615 499.512 442.275C587.526 350.151 661.086 297.309 701.328 297.309V297.297Z" fill="url(#paint2_linear_71_71)"/>
<path d="M135.058 1168.04C178.001 1168.04 254.682 1111.7 345.422 1013.48C516.692 828.097 689.373 547.517 730.355 388.034C742.561 340.549 742.238 308.071 729.387 291.498C723.23 283.558 714.275 279.54 702.762 279.54C659.819 279.54 583.139 335.874 492.411 434.096C321.141 619.479 148.46 900.06 107.477 1059.54C95.271 1107.03 95.5938 1139.5 108.446 1156.07C114.603 1164.01 123.557 1168.02 135.07 1168.02L135.058 1168.04ZM702.762 281.645C713.594 281.645 721.986 285.399 727.725 292.789C739.979 308.586 740.182 341.338 728.311 387.508C687.4 546.715 514.934 826.877 343.867 1012.05C253.522 1109.84 177.415 1165.92 135.058 1165.92C124.226 1165.92 115.834 1162.16 110.095 1154.77C97.8414 1138.98 97.6381 1106.23 109.51 1060.07C150.42 900.861 322.886 620.699 493.953 435.519C584.298 337.727 660.405 281.645 702.762 281.645Z" fill="url(#paint3_linear_71_71)"/>
<path d="M144.634 1172.08C189.884 1172.08 269.135 1112.38 362.075 1008.3C533.704 816.115 701.531 529.735 736.189 369.906C746.124 324.071 744.486 292.55 731.311 276.216C724.748 268.072 715.387 263.935 703.504 263.935C658.265 263.935 579.002 323.629 486.062 427.71C314.434 619.898 146.607 906.29 111.949 1066.12C102.014 1111.94 103.652 1143.46 116.826 1159.81C123.39 1167.95 132.75 1172.09 144.634 1172.09V1172.08ZM703.504 266.099C714.706 266.099 723.493 269.962 729.626 277.567C742.191 293.148 743.733 324.92 734.073 369.439C699.475 528.958 531.875 814.907 360.461 1006.86C267.928 1110.48 189.263 1169.91 144.634 1169.91C133.432 1169.91 124.645 1166.05 118.512 1158.45C105.947 1142.86 104.417 1111.09 114.065 1066.57C148.663 907.055 316.263 621.106 487.676 429.145C580.21 325.53 658.875 266.099 703.504 266.099Z" fill="url(#paint4_linear_71_71)"/>
<path d="M154.916 1175.59C202.629 1175.59 284.486 1112.44 379.482 1002.34C551.111 803.404 713.462 511.523 741.378 351.682C749.077 307.629 746.124 277.136 732.614 261.065C725.597 252.718 715.806 248.485 703.528 248.485C655.814 248.485 573.957 311.635 478.961 421.743C307.332 620.675 144.981 912.568 117.053 1072.41C109.354 1116.46 112.307 1146.95 125.817 1163.03C132.834 1171.37 142.626 1175.62 154.904 1175.62L154.916 1175.59ZM703.539 250.697C715.136 250.697 724.353 254.667 730.929 262.488C743.996 278.033 746.781 307.916 739.202 351.299C711.334 510.806 549.21 802.208 377.808 1000.89C283.231 1110.51 201.995 1173.38 154.927 1173.38C143.331 1173.38 134.113 1169.41 127.538 1161.59C114.471 1146.05 111.685 1116.16 119.265 1072.79C147.133 913.285 309.257 621.883 480.659 423.202C575.236 313.584 656.472 250.709 703.539 250.709V250.697Z" fill="url(#paint5_linear_71_71)"/>
<path d="M165.926 1178.54C216.305 1178.54 300.769 1111.83 397.642 995.52C568.9 789.915 725.119 492.881 745.885 333.374C751.372 291.199 747.14 261.818 733.296 246.058C725.788 237.508 715.53 233.167 702.822 233.167C652.443 233.167 567.991 299.868 471.106 416.171C299.848 621.775 143.63 918.81 122.863 1078.32C117.376 1120.49 121.608 1149.86 135.452 1165.63C142.96 1174.18 153.218 1178.52 165.926 1178.52V1178.54ZM702.822 235.451C714.849 235.451 724.521 239.529 731.574 247.564C744.964 262.811 749.017 291.593 743.613 333.087C722.895 492.223 566.903 788.743 395.884 994.061C347.119 1052.61 301.797 1098.38 261.161 1130.14C222.558 1160.31 189.621 1176.25 165.914 1176.25C153.887 1176.25 144.216 1172.17 137.162 1164.14C123.772 1148.89 119.719 1120.11 125.123 1078.63C145.841 919.479 301.833 622.971 472.852 417.642C521.617 359.108 566.939 313.321 607.575 281.573C646.178 251.403 679.115 235.463 702.822 235.463V235.451Z" fill="url(#paint6_linear_71_71)"/>
<path d="M177.642 1180.88C203.19 1180.88 238.004 1163.84 278.329 1131.6C320.447 1097.93 366.953 1049.56 416.555 987.842C587.048 775.661 736.476 473.856 749.651 315.055C752.986 274.852 747.487 246.656 733.308 231.254C725.262 222.513 714.514 218.088 701.352 218.088C675.803 218.088 640.99 235.128 600.665 267.355C558.547 301.028 512.041 349.386 462.451 411.113C291.958 623.294 142.53 925.111 129.355 1083.91C126.02 1124.11 131.519 1152.3 145.686 1167.71C153.732 1176.45 164.48 1180.88 177.642 1180.88ZM701.352 220.42C713.833 220.42 724.007 224.593 731.586 232.832C745.299 247.732 750.595 275.331 747.319 314.852C734.181 473.258 584.98 774.501 414.738 986.372C365.255 1047.95 318.869 1096.2 276.882 1129.77C236.976 1161.67 202.664 1178.54 177.654 1178.54C165.173 1178.54 154.999 1174.36 147.419 1166.12C133.707 1151.22 128.411 1123.62 131.698 1084.1C144.837 925.697 294.038 624.454 464.28 412.572C513.763 350.988 560.149 302.738 602.135 269.172C642.042 237.269 676.353 220.408 701.364 220.408L701.352 220.42Z" fill="url(#paint7_linear_71_71)"/>
<path d="M190.076 1182.59C217.047 1182.59 253.319 1164.59 294.983 1130.56C337.866 1095.52 386.703 1043.21 436.209 979.281C605.519 760.63 747.463 454.448 752.616 296.723C753.859 258.578 747.14 231.649 732.626 216.653C724.007 207.745 712.721 203.225 699.092 203.225C672.121 203.225 635.849 221.209 594.185 255.253C551.302 290.29 502.465 342.606 452.958 406.533C283.637 625.183 141.705 931.377 136.552 1089.09C135.309 1127.22 142.028 1154.17 156.541 1169.16C165.161 1178.07 176.447 1182.59 190.076 1182.59ZM699.092 205.628C712.052 205.628 722.751 209.897 730.893 218.327C744.928 232.832 751.432 259.188 750.213 296.652C745.072 453.934 603.367 759.506 434.308 977.81C336.18 1104.54 244.866 1180.19 190.076 1180.19C177.116 1180.19 166.416 1175.92 158.275 1167.49C144.239 1152.98 137.736 1126.63 138.967 1089.16C144.108 931.88 285.813 626.307 454.871 408.004C553 281.286 644.301 205.628 699.104 205.628H699.092Z" fill="url(#paint8_linear_71_71)"/>
<path d="M203.202 1183.64C262.07 1183.64 356.803 1103.69 456.617 969.786C624.324 744.81 758.067 434.67 754.755 278.452C753.177 204.241 721.962 188.66 696.055 188.66C637.188 188.66 542.455 268.598 442.641 402.515C274.934 627.491 141.191 937.631 144.503 1093.86C146.081 1168.07 177.296 1183.65 203.202 1183.65V1183.64ZM696.044 191.123C731.622 191.123 751.073 221.341 752.281 278.5C755.58 434.263 622.065 743.71 454.632 968.315C355.273 1101.6 261.281 1181.18 203.19 1181.18C167.612 1181.18 148.173 1150.96 146.953 1093.8C143.654 938.038 277.169 628.591 444.602 403.986C543.961 270.703 637.953 191.123 696.044 191.123Z" fill="url(#paint9_linear_71_71)"/>
<path d="M217.011 1184C279.488 1184 376.959 1100.02 477.766 959.335C643.405 728.177 768.229 414.569 755.999 260.252C750.38 189.294 718.196 174.394 692.194 174.394C629.716 174.394 532.245 258.374 431.439 399.059C265.8 630.217 140.976 943.826 153.206 1098.15C158.825 1169.11 191.008 1184 217.011 1184ZM692.194 176.929C727.964 176.929 749.148 205.808 753.476 260.455C765.659 414.27 641.062 727.124 475.709 957.864C375.381 1097.88 278.664 1181.47 217.011 1181.47C181.253 1181.47 160.056 1152.59 155.728 1097.94C143.546 944.124 268.143 631.27 433.495 400.518C533.823 260.503 630.541 176.917 692.194 176.917V176.929Z" fill="url(#paint10_linear_71_71)"/>
<path d="M231.477 1183.65C297.876 1183.65 398.132 1095.52 499.656 947.915C662.76 710.754 777.901 394.168 756.31 242.195C748.718 188.744 724.927 160.499 687.519 160.499C621.12 160.499 520.864 248.629 419.34 396.237C256.236 633.398 141.095 949.996 162.686 1101.97C170.278 1155.42 194.069 1183.67 231.477 1183.67V1183.65ZM687.519 163.094C723.457 163.094 746.351 190.573 753.739 242.566C775.247 393.989 660.309 709.75 497.516 946.456C447.1 1019.76 395.645 1080.06 348.709 1120.85C303.375 1160.25 262.835 1181.07 231.477 1181.07C195.539 1181.07 172.645 1153.59 165.257 1101.61C143.749 950.187 258.687 634.415 421.48 397.72C471.896 324.418 523.351 264.114 570.287 223.326C615.621 183.937 656.161 163.106 687.508 163.106L687.519 163.094Z" fill="url(#paint11_linear_71_71)"/>
<path d="M246.588 1182.58C280.541 1182.58 323.472 1160.45 370.731 1118.59C419.293 1075.58 471.692 1012.27 522.263 935.503C682.343 692.53 787.035 373.493 755.628 224.33C744.976 173.736 719.524 146.999 682.032 146.999C648.079 146.999 605.148 169.121 557.889 210.985C509.327 253.998 456.928 317.303 406.357 394.073C246.277 637.045 141.585 956.082 172.992 1105.26C183.644 1155.84 209.096 1182.58 246.588 1182.58ZM682.032 149.653C718.113 149.653 742.669 175.662 753.022 224.868C784.309 373.445 679.784 691.573 520.039 934.032C469.588 1010.61 417.344 1073.74 368.961 1116.59C322.193 1158.02 279.871 1179.91 246.576 1179.91C210.495 1179.91 185.951 1153.9 175.586 1104.71C144.299 956.13 248.824 638.002 408.569 395.532C459.02 318.953 511.264 255.827 559.647 212.97C606.415 171.548 648.737 149.653 682.02 149.653H682.032Z" fill="url(#paint12_linear_71_71)"/>
<path d="M262.297 1180.72C298.39 1180.72 343.234 1157.48 391.987 1113.5C442.043 1068.34 495.16 1002.13 545.611 922.038C621.419 801.67 684.842 661.009 724.198 525.98C763.578 390.832 774.135 277.423 753.919 206.668C740.314 159.076 713.283 133.917 675.732 133.917C638.18 133.917 594.795 157.163 546.042 201.144C495.985 246.297 442.868 312.508 392.417 392.602C316.61 512.982 253.175 653.631 213.831 788.672C174.45 923.82 163.894 1037.23 184.11 1107.98C197.715 1155.58 224.746 1180.74 262.285 1180.74L262.297 1180.72ZM675.732 136.643C711.932 136.643 738.054 161.121 751.289 207.422C792.785 352.663 699.487 672.584 543.292 920.579C492.985 1000.47 440.023 1066.48 390.158 1111.46C341.919 1154.98 297.708 1177.99 262.297 1177.99C226.886 1177.99 199.975 1153.52 186.74 1107.22C145.244 961.978 238.542 642.044 394.737 394.049C445.044 314.158 498.006 248.15 547.871 203.165C596.11 159.65 640.32 136.643 675.732 136.643Z" fill="url(#paint13_linear_71_71)"/>
<path d="M278.556 1178.09C316.992 1178.09 363.88 1153.69 414.152 1107.53C465.739 1060.16 519.501 990.999 569.629 907.533C643.465 784.57 703.013 642.199 737.301 506.644C771.624 370.946 776.514 258.243 751.085 189.306C734.671 144.822 706.158 121.301 668.606 121.301C631.055 121.301 583.282 145.707 533.011 191.877C481.424 239.242 427.661 308.406 377.533 391.872C303.698 514.836 244.149 657.206 209.862 792.773C175.538 928.471 170.648 1041.17 196.077 1110.11C212.492 1154.6 241.005 1178.1 278.544 1178.1L278.556 1178.09ZM668.618 124.099C704.89 124.099 732.495 146.975 748.467 190.262C800.64 331.688 719.332 652.794 567.238 906.074C467.52 1072.12 356.91 1175.28 278.568 1175.28C242.308 1175.28 214.691 1152.41 198.731 1109.12C146.559 967.693 227.866 646.576 379.96 393.295C479.678 227.248 590.288 124.099 668.63 124.099H668.618Z" fill="url(#paint14_linear_71_71)"/>
<path d="M295.329 1174.65C380.211 1174.65 494.802 1066.31 594.365 891.916C665.964 766.502 721.305 622.636 750.177 486.806C779.084 350.821 778.008 239.11 747.14 172.242C728.095 130.975 698.207 109.164 660.728 109.164C575.846 109.164 461.267 217.502 361.704 391.884C290.105 517.299 234.764 661.177 205.892 796.994C176.985 932.98 178.061 1044.69 208.929 1111.56C227.974 1152.81 257.85 1174.62 295.329 1174.62V1174.65ZM660.728 112.058C697.526 112.058 725.716 132.709 744.522 173.461C807.801 310.559 739.321 632.214 591.866 890.493C542.407 977.128 488.262 1049.06 435.301 1098.51C383.977 1146.44 335.582 1171.77 295.341 1171.77C258.555 1171.77 230.365 1151.12 211.559 1110.38C148.28 973.278 216.76 651.61 364.215 393.331C413.674 306.696 467.819 234.77 520.78 185.312C572.104 137.396 620.499 112.058 660.74 112.058H660.728Z" fill="url(#paint15_linear_71_71)"/>
<path d="M312.557 1170.39C356.349 1170.39 407.768 1143.56 461.291 1092.79C516.118 1040.77 570.92 965.541 619.769 875.211C688.858 747.489 739.632 602.356 762.742 466.55C785.887 330.564 778.51 220.133 741.975 155.596C720.492 117.654 689.408 97.6005 652.084 97.6005C608.292 97.6005 556.861 124.434 503.35 175.207C448.523 227.224 393.732 302.451 344.872 392.781C275.782 520.504 225.009 665.649 201.899 801.455C178.754 937.44 186.13 1047.87 222.666 1112.41C244.137 1150.35 275.221 1170.4 312.557 1170.4V1170.39ZM652.072 100.554C688.799 100.554 718.173 119.567 739.393 157.055C814.245 289.286 759.406 610.822 617.151 873.812C568.446 963.867 513.834 1038.84 459.235 1090.64C406.285 1140.88 355.548 1167.44 312.533 1167.44C275.818 1167.44 246.432 1148.43 225.212 1110.94C150.361 978.707 205.199 657.159 347.442 394.168C396.147 304.114 450.759 229.137 505.358 177.336C558.308 127.101 609.034 100.542 652.06 100.542L652.072 100.554Z" fill="url(#paint16_linear_71_71)"/>
<path d="M330.143 1165.3C377.007 1165.3 430.973 1137.18 486.218 1083.98C542.754 1029.53 597.951 951.167 645.82 857.382C712.111 727.495 757.971 581.345 774.96 445.862C791.972 310.176 777.984 201.335 735.567 139.393C711.561 104.345 680.334 86.5872 642.723 86.5872C595.859 86.5872 541.893 114.7 486.648 167.901C430.112 222.345 374.915 300.705 327.046 394.503C260.755 524.39 214.895 670.539 197.906 806.034C180.894 941.721 194.882 1050.56 237.311 1112.5C261.305 1147.54 292.544 1165.31 330.143 1165.31V1165.3ZM642.711 89.6125C679.258 89.6125 709.649 106.94 733.057 141.103C819.911 267.929 779.575 588.628 643.118 855.995C595.405 949.494 540.423 1027.58 484.114 1081.8C429.455 1134.43 376.206 1162.26 330.143 1162.26C293.596 1162.26 263.206 1144.93 239.809 1110.77C152.943 983.944 193.292 663.233 329.748 395.866C377.461 302.368 432.443 224.282 488.752 170.065C543.412 117.427 596.66 89.6005 642.723 89.6005L642.711 89.6125Z" fill="url(#paint17_linear_71_71)"/>
<path d="M348.004 1159.37C398.251 1159.37 454.979 1129.91 512.041 1074.2C570.382 1017.24 625.867 935.682 672.492 838.393C735.687 706.521 776.263 559.618 786.772 424.757C797.292 289.68 776.359 182.765 727.82 123.705C701.902 92.1596 669.886 76.1719 632.669 76.1719C582.421 76.1719 525.694 105.624 468.632 161.336C410.29 218.304 354.806 299.844 308.181 397.146C244.986 529.018 204.41 675.921 193.901 810.782C183.381 945.858 204.314 1052.79 252.852 1111.85C278.771 1143.39 310.775 1159.38 347.992 1159.38L348.004 1159.37ZM632.669 79.269C668.905 79.269 700.108 94.874 725.417 125.666C824.729 246.524 799.731 565.645 669.682 837.041C576.766 1030.95 450.496 1156.26 348.004 1156.26C311.768 1156.26 280.564 1140.65 255.267 1109.86C155.943 988.991 180.954 669.87 310.991 398.485C403.906 204.576 530.177 79.2809 632.669 79.2809V79.269Z" fill="url(#paint18_linear_71_71)"/>
<path d="M366.056 1152.59C420.046 1152.59 479.762 1121.75 538.749 1063.42C599.003 1003.83 654.69 919.049 699.785 818.22C759.573 684.542 794.518 537.173 798.165 403.256C801.811 269.113 773.609 164.457 718.746 108.566C691.249 80.5604 658.719 66.3544 622.053 66.3544C568.063 66.3544 508.347 97.1818 449.36 155.524C389.106 215.111 333.418 299.892 288.323 400.721C228.524 534.411 193.591 681.78 189.944 815.685C186.298 949.828 214.5 1054.48 269.375 1110.39C296.871 1138.39 329.402 1152.6 366.056 1152.6V1152.59ZM622.041 69.5591C657.811 69.5591 689.576 83.4422 716.451 110.814C828.663 225.131 819.875 541.896 696.856 816.928C651.917 917.398 596.469 1001.85 536.489 1061.16C478.112 1118.89 419.173 1149.39 366.044 1149.39C330.274 1149.39 298.509 1135.51 271.646 1108.14C159.435 993.81 168.21 677.057 291.229 402.025C336.168 301.554 391.616 217.108 451.596 157.796C509.973 100.064 568.912 69.5591 622.041 69.5591Z" fill="url(#paint19_linear_71_71)"/>
<path d="M384.132 1144.97C442.259 1144.97 505.262 1112.69 566.306 1051.64C628.592 989.337 684.375 901.243 727.641 796.875C783.723 661.583 812.631 514.034 809.044 381.421C805.446 248.569 769.652 146.52 708.226 94.0848C679.557 69.607 646.812 57.1947 610.899 57.1947C552.772 57.1947 489.769 89.4691 428.725 150.526C366.439 212.827 310.656 300.921 267.39 405.277C211.308 540.581 182.4 688.118 185.987 820.731C189.586 953.583 225.391 1055.63 286.805 1108.07C315.474 1132.55 348.219 1144.95 384.12 1144.95L384.132 1144.97ZM610.911 60.4831C646.023 60.4831 678.051 72.6323 706.11 96.584C831.663 203.775 839.96 517.359 724.616 795.619C681.518 899.593 625.974 987.316 563.986 1049.32C503.565 1109.75 441.374 1141.69 384.132 1141.69C349.032 1141.69 317.004 1129.54 288.945 1105.59C163.392 998.401 155.083 684.805 270.427 406.545C313.525 302.571 369.069 214.848 431.057 152.846C491.478 92.4107 553.669 60.4712 610.911 60.4712V60.4831Z" fill="url(#paint20_linear_71_71)"/>
<path d="M402.125 1136.53C433.376 1136.53 465.918 1128 498.855 1111.18C531.373 1094.58 563.616 1070.23 594.699 1038.83C659.162 973.708 714.957 882.242 756.059 774.322C808.112 637.619 830.611 490.214 819.409 359.251C808.183 228.037 764.463 128.978 696.283 80.3213C666.897 59.3471 634.295 48.7166 599.386 48.7166C568.135 48.7166 535.593 57.2425 502.644 74.0673C470.126 90.6649 437.883 115.011 406.799 146.413C342.337 211.535 286.542 303.001 245.44 410.922C193.387 547.624 170.888 695.029 182.09 825.992C193.316 957.206 237.048 1056.27 305.228 1104.93C334.614 1125.91 367.204 1136.54 402.113 1136.54L402.125 1136.53ZM599.386 52.0767C633.578 52.0767 665.522 62.504 694.334 83.0597C833.66 182.502 859.937 492.068 752.926 773.126C712.004 880.616 656.46 971.676 592.32 1036.46C561.488 1067.61 529.532 1091.74 497.336 1108.18C464.878 1124.75 432.838 1133.16 402.137 1133.16C367.945 1133.16 336.001 1122.73 307.201 1102.17C167.875 1002.72 141.585 693.152 248.608 412.093C289.531 304.604 345.075 213.544 409.214 148.756C440.047 117.606 472.003 93.475 504.199 77.0448C536.657 60.4712 568.697 52.0648 599.41 52.0648L599.386 52.0767Z" fill="url(#paint21_linear_71_71)"/>
<path d="M419.819 1127.27C453.604 1127.27 488.465 1118.33 523.434 1100.67C557.889 1083.27 591.699 1057.82 623.906 1025.01C690.735 956.943 746.435 862.033 785.002 750.538C832.691 612.651 848.389 465.701 829.189 336.77C809.953 207.589 757.971 111.89 682.821 67.311C653.256 49.7688 621.216 40.8721 587.61 40.8721C554.004 40.8721 518.963 49.8166 483.994 67.4784C449.539 84.8772 415.73 110.324 383.523 143.136C316.693 211.2 260.994 306.11 222.426 417.606C174.737 555.492 159.04 702.443 178.24 831.373C197.476 960.555 249.457 1056.25 324.607 1100.84C354.173 1118.39 386.213 1127.28 419.819 1127.28V1127.27ZM587.598 44.3399C620.582 44.3399 652.025 53.0691 681.052 70.2885C834.58 161.372 879.747 466.023 781.726 749.414C743.326 860.419 687.902 954.886 621.431 1022.59C589.487 1055.13 555.988 1080.36 521.868 1097.58C487.389 1114.99 453.054 1123.82 419.819 1123.82C386.583 1123.82 355.404 1115.09 326.377 1097.87C172.848 1006.78 127.67 702.12 225.69 418.73C264.09 307.725 319.515 213.257 385.986 145.552C417.93 113.014 451.428 87.7829 485.548 70.5635C520.027 53.1648 554.363 44.3399 587.61 44.3399H587.598Z" fill="url(#paint22_linear_71_71)"/>
<path d="M437.022 1117.21C473.641 1117.21 511.073 1107.82 548.289 1089.28C584.896 1071.05 620.415 1044.43 653.842 1010.16C723.254 939.006 778.773 840.581 814.4 725.522C857.391 586.691 865.879 440.553 838.298 314.039C824.873 252.455 803.616 198.872 775.103 154.759C745.538 108.996 709.433 75.4903 667.781 55.1618C638.635 40.9319 607.659 33.7213 575.726 33.7213C539.108 33.7213 501.676 43.1202 464.459 61.655C427.853 79.8908 392.334 106.509 358.907 140.78C289.495 211.93 233.987 310.355 198.349 425.414C155.358 564.258 146.87 710.383 174.45 836.898C187.876 898.481 209.144 952.064 237.645 996.177C267.211 1041.94 303.327 1075.45 344.967 1095.77C374.114 1110 405.078 1117.21 437.022 1117.21ZM575.726 37.2728C607.121 37.2728 637.571 44.3638 666.227 58.3546C707.281 78.396 742.92 111.484 772.126 156.684C800.4 200.438 821.489 253.639 834.831 314.792C862.292 440.721 853.828 586.212 811.017 724.47C775.558 838.99 720.324 936.926 651.307 1007.68C618.155 1041.66 582.959 1068.06 546.711 1086.11C509.997 1104.4 473.091 1113.68 437.022 1113.68C405.628 1113.68 375.178 1106.58 346.521 1092.59C305.467 1072.55 269.829 1039.46 240.622 994.252C212.348 950.498 191.247 897.297 177.917 836.144C150.456 710.216 158.92 564.724 201.732 426.467C237.191 311.946 292.424 214.011 361.441 143.256C394.593 109.271 429.789 82.8803 466.037 64.8358C502.764 46.5521 539.658 37.2848 575.726 37.2848V37.2728Z" fill="url(#paint23_linear_71_71)"/>
<path d="M453.473 1106.43C493.259 1106.43 533.572 1096.56 573.299 1077.08C612.309 1057.96 649.717 1030.11 684.495 994.312C719.571 958.187 750.99 914.959 777.877 865.836C805.673 815.027 828.005 758.992 844.252 699.274C882.198 559.738 883.083 414.772 846.715 291.091C829.021 230.883 803.437 178.986 770.692 136.846C736.739 93.1401 696.51 61.8822 651.152 43.9453C623.117 32.8603 593.791 27.2401 563.974 27.2401C524.188 27.2401 483.875 37.1173 444.136 56.5848C405.126 75.7055 367.718 103.555 332.94 139.357C297.864 175.482 266.445 218.71 239.558 267.833C211.762 318.642 189.43 374.677 173.183 434.395C135.237 573.932 134.353 718.897 170.72 842.59C188.426 902.798 213.998 954.695 246.743 996.835C280.708 1040.54 320.925 1071.8 366.295 1089.74C394.318 1100.82 423.644 1106.43 453.461 1106.43H453.473ZM563.974 30.8753C593.324 30.8753 622.208 36.4118 649.813 47.3174C694.561 65.0151 734.264 95.8785 767.823 139.058C800.293 180.839 825.662 232.33 843.224 292.096C879.4 415.143 878.516 559.403 840.737 698.306C824.574 757.748 802.349 813.52 774.685 864.078C747.965 912.914 716.738 955.879 681.889 991.765C647.41 1027.27 610.337 1054.88 571.698 1073.81C532.473 1093.04 492.698 1102.78 453.473 1102.78C424.123 1102.78 395.239 1097.25 367.646 1086.34C322.898 1068.64 283.195 1037.78 249.636 994.587C217.166 952.806 191.797 901.315 174.235 841.549C138.059 718.503 138.943 574.242 176.722 435.339C192.885 375.897 215.11 320.125 242.774 269.567C269.494 220.731 300.721 177.766 335.57 141.881C370.049 106.378 407.122 78.7667 445.761 59.8374C484.986 40.609 524.761 30.8634 563.998 30.8634L563.974 30.8753Z" fill="url(#paint24_linear_71_71)"/>
<path d="M468.871 1094.94C554.697 1094.94 642.389 1053.22 715.805 977.451C752.353 939.736 784.464 894.762 811.232 843.786C838.92 791.063 860.212 733.175 874.499 671.747C907.053 531.78 899.904 388.369 854.366 267.929C832.201 209.311 802.134 159.315 764.989 119.328C726.481 77.8818 682.032 49.0753 632.86 33.6974C606.738 25.5301 579.743 21.3927 552.605 21.3927C466.779 21.3927 379.087 63.1138 305.67 138.879C269.123 176.594 237.012 221.568 210.244 272.545C182.556 325.267 161.264 383.155 146.977 444.583C114.423 584.55 121.572 727.961 167.11 848.413C189.275 907.031 219.342 957.027 256.487 997.014C294.995 1038.46 339.456 1067.28 388.628 1082.64C414.738 1090.81 441.745 1094.95 468.871 1094.95V1094.94ZM552.605 25.1236C579.361 25.1236 605.985 29.2012 631.748 37.2608C680.287 52.4354 724.198 80.9072 762.263 121.875C799.073 161.503 828.89 211.081 850.875 269.256C896.15 389.015 903.251 531.66 870.864 670.91C856.65 732.027 835.477 789.616 807.932 842.064C781.332 892.717 749.435 937.404 713.128 974.868C640.428 1049.9 553.681 1091.22 468.883 1091.22C442.127 1091.22 415.503 1087.14 389.751 1079.08C341.201 1063.91 297.29 1035.43 259.237 994.467C222.426 954.839 192.61 905.261 170.613 847.086C125.338 727.328 118.237 584.682 150.624 445.432C164.838 384.315 186.011 326.726 213.556 274.278C240.156 223.625 272.052 178.938 308.36 141.486C381.06 66.4501 467.807 25.1355 552.617 25.1355L552.605 25.1236Z" fill="url(#paint25_linear_71_71)"/>
<path d="M482.87 1082.82C576.635 1082.82 670.687 1039.07 747.69 959.622C785.875 920.221 818.74 873.429 845.376 820.552C872.933 765.832 893.017 706.09 905.092 642.965C931.884 502.842 916.294 361.38 861.205 244.623C834.389 187.799 799.659 139.919 757.971 102.312C714.765 63.341 665.952 37.1652 612.883 24.5137C589.582 18.9653 565.72 16.1552 541.941 16.1552C448.164 16.1552 354.113 59.9091 277.109 139.357C238.925 178.759 206.06 225.55 179.424 278.428C151.867 333.135 131.782 392.889 119.707 456.015C92.9158 596.137 108.505 737.599 163.607 854.356C190.422 911.18 225.164 959.06 266.852 996.667C310.058 1035.64 358.883 1061.81 411.952 1074.47C435.241 1080.01 459.115 1082.82 482.894 1082.82H482.87ZM541.929 19.9817C565.409 19.9817 588.985 22.7559 611.987 28.2446C664.422 40.7406 712.673 66.6175 755.401 105.158C796.706 142.419 831.137 189.892 857.738 246.261C912.492 362.289 927.974 502.914 901.326 642.247C889.323 705.026 869.346 764.433 841.957 818.83C815.5 871.361 782.862 917.841 744.94 956.955C668.666 1035.65 575.595 1078.99 482.87 1078.99C459.39 1078.99 435.827 1076.21 412.825 1070.72C360.377 1058.23 312.126 1032.35 269.398 993.81C228.081 956.549 193.65 909.076 167.05 852.706C112.295 736.679 96.8132 596.054 123.449 456.72C135.452 393.941 155.43 334.534 182.819 280.138C209.276 227.607 241.913 181.126 279.835 142.012C356.109 63.3171 449.193 19.9817 541.917 19.9817H541.929Z" fill="url(#paint26_linear_71_71)"/>
<path d="M495.041 1070.17C597.772 1070.17 699.008 1024.24 780.089 940.848C861.826 856.784 917.203 740.314 936.008 612.902C946.457 542.171 945.429 471.644 932.984 403.28C920.957 337.237 898.816 275.977 867.17 221.209C835.513 166.406 795.941 120.871 749.555 85.8458C701.495 49.5655 648.199 26.2237 591.137 16.478C571.698 13.1537 551.912 11.4796 532.317 11.4796C429.586 11.4796 328.349 57.4099 247.269 140.804C165.532 224.88 110.155 341.338 91.3496 468.738C80.9008 539.469 81.929 609.997 94.3743 678.36C106.401 744.404 128.542 805.664 160.188 860.431C191.845 915.234 231.417 960.77 277.803 995.794C325.863 1032.07 379.159 1055.42 436.221 1065.16C455.648 1068.49 475.434 1070.16 495.029 1070.16L495.041 1070.17ZM532.317 15.4138C551.696 15.4138 571.255 17.0759 590.479 20.3643C646.908 30.0024 699.642 53.0931 747.188 88.9907C793.144 123.693 832.369 168.846 863.763 223.182C895.169 277.555 917.155 338.385 929.11 403.986C941.484 471.919 942.5 542.016 932.123 612.328C913.437 738.927 858.443 854.62 777.279 938.098C696.952 1020.73 596.72 1066.23 495.053 1066.23C475.685 1066.23 456.115 1064.56 436.903 1061.29C380.462 1051.65 327.74 1028.56 280.182 992.662C234.214 957.96 195.001 912.807 163.607 858.47C132.201 804.097 110.203 743.268 98.2598 677.666C85.8861 609.734 84.8699 539.636 95.247 469.324C113.933 342.737 168.927 227.045 250.103 143.555C330.43 60.9256 430.65 15.4138 532.317 15.4138Z" fill="url(#paint27_linear_71_71)"/>
<path d="M504.868 1057.09C617.761 1057.09 727.139 1008.82 812.87 921.177C899.079 833.036 953.869 712.428 967.152 581.585C974.313 511.081 969.292 441.378 952.255 374.402C935.793 309.71 908.846 250.267 872.179 197.748C835.489 145.205 790.92 102.228 739.692 70.0135C686.635 36.639 628.736 16.3345 567.609 9.66198C553.227 8.09549 538.629 7.29431 524.235 7.29431C411.354 7.29431 301.964 55.5684 216.234 143.22C130.013 231.362 75.2222 351.969 61.9399 482.812C54.7787 553.316 59.7999 623.019 76.8361 689.995C93.2983 754.687 120.245 814.13 156.912 866.649C193.603 919.192 238.172 962.169 289.4 994.384C342.457 1027.76 400.356 1048.06 461.495 1054.74C475.877 1056.3 490.462 1057.1 504.856 1057.1L504.868 1057.09ZM524.235 11.3361C538.486 11.3361 552.928 12.1253 567.167 13.6798C627.684 20.2806 685.009 40.3938 737.54 73.4335C788.302 105.361 832.488 147.967 868.868 200.068C905.26 252.192 932.003 311.181 948.346 375.406C965.275 441.916 970.248 511.141 963.147 581.178C949.96 711.125 895.564 830.871 809.989 918.355C725.023 1005.22 616.673 1053.06 504.88 1053.06C490.629 1053.06 476.188 1052.27 461.949 1050.72C401.432 1044.12 344.095 1024 291.563 990.964C240.802 959.036 196.615 916.43 160.236 864.329C123.844 812.205 97.1002 753.216 80.7574 688.991C63.8289 622.481 58.8555 553.256 65.9568 483.219C79.1434 353.284 133.54 233.538 219.115 146.042C304.08 59.1797 412.442 11.3361 524.235 11.3361Z" fill="url(#paint28_linear_71_71)"/>
<path d="M511.766 1043.72C636.184 1043.72 754.851 992.913 845.938 900.657C937.287 808.127 991.468 683.239 998.51 548.987C1002.18 478.878 992.975 410.192 971.133 344.842C950.032 281.716 918.087 224.33 876.196 174.298C834.293 124.255 784.548 84.076 728.346 54.8748C670.149 24.6333 607.527 7.56935 542.24 4.14939C534.266 3.73087 526.196 3.51562 518.234 3.51562C393.816 3.51562 275.137 54.3248 184.05 146.58C92.7006 239.11 38.5197 363.999 31.4781 498.25C27.7959 568.359 37.0133 637.045 58.8555 702.395C79.9564 765.533 111.901 822.907 153.792 872.939C195.695 922.983 245.44 963.161 301.642 992.363C359.851 1022.59 422.461 1039.66 487.748 1043.09C495.722 1043.51 503.792 1043.72 511.754 1043.72H511.766ZM518.234 7.66502C526.124 7.66502 534.122 7.88026 542.025 8.28683C606.714 11.6829 668.762 28.5914 726.434 58.5459C782.157 87.484 831.472 127.328 873.016 176.953C914.573 226.59 946.254 283.522 967.199 346.157C988.874 411.017 998.02 479.189 994.374 548.772C987.392 681.995 933.629 805.939 842.997 897.74C752.699 989.206 635.072 1039.57 511.778 1039.57C503.888 1039.57 495.89 1039.36 487.987 1038.95C423.286 1035.55 361.238 1018.65 303.566 988.691C247.843 959.753 198.528 919.91 156.984 870.284C115.427 820.647 83.7342 763.715 62.8007 701.08C41.1259 636.22 31.9802 568.048 35.6265 498.465C42.6083 365.23 96.3708 241.299 187.003 149.498C277.301 58.0317 394.94 7.66502 518.234 7.66502Z" fill="url(#paint29_linear_71_71)"/>
<path d="M515.006 1030.22C584.525 1030.22 651.965 1016.6 715.459 989.744C776.789 963.795 831.855 926.654 879.161 879.348C926.456 832.043 963.589 776.953 989.532 715.621C1016.38 652.112 1030 584.646 1030 515.111C1030 445.575 1016.38 378.109 989.532 314.612C963.589 253.268 926.456 198.19 879.161 150.885C831.867 103.579 776.789 66.4381 715.459 40.4895C651.965 13.6201 584.525 0 515.006 0C445.487 0 378.035 13.6201 314.541 40.4775C253.211 66.4262 198.133 103.567 150.839 150.873C103.544 198.178 66.4111 253.268 40.4683 314.601C13.6169 378.109 -0.0119629 445.564 -0.0119629 515.099C-0.0119629 584.634 13.605 652.1 40.4683 715.609C66.4111 776.953 103.544 832.031 150.839 879.336C198.133 926.642 253.211 963.783 314.541 989.732C378.035 1016.59 445.475 1030.21 515.006 1030.21V1030.22ZM515.006 4.25701C583.952 4.25701 650.841 17.7694 713.797 44.3997C774.613 70.1331 829.236 106.963 876.149 153.886C923.061 200.809 959.883 255.433 985.61 316.263C1012.25 379.245 1025.74 446.137 1025.74 515.111C1025.74 584.084 1012.23 650.976 985.61 713.959C959.883 774.789 923.061 829.424 876.149 876.335C829.236 923.258 774.625 960.088 713.797 985.822C650.829 1012.46 583.952 1025.96 515.006 1025.96C446.06 1025.96 379.171 1012.46 316.203 985.822C255.387 960.088 200.764 923.258 153.851 876.335C106.939 829.412 70.1172 774.789 44.3897 713.959C17.7535 650.976 4.2561 584.072 4.2561 515.111C4.2561 446.149 17.7654 379.245 44.3897 316.263C70.1172 255.433 106.939 200.797 153.851 153.886C200.764 106.963 255.387 70.1331 316.203 44.3997C379.171 17.7575 446.06 4.25701 515.006 4.25701Z" fill="url(#paint30_linear_71_71)"/>
</g>
<defs>
<linearGradient id="paint0_linear_71_71" x1="8068.73" y1="-20364.9" x2="8279.16" y2="-20937.3" gradientUnits="userSpaceOnUse">
<stop stop-color="white"/>
<stop offset="1" stop-color="#81C4DB"/>
</linearGradient>
<linearGradient id="paint1_linear_71_71" x1="7179.53" y1="-19888" x2="7371.75" y2="-20466.7" gradientUnits="userSpaceOnUse">
<stop stop-color="white"/>
<stop offset="1" stop-color="#81C4DB"/>
</linearGradient>
<linearGradient id="paint2_linear_71_71" x1="6247.1" y1="-19078.1" x2="6417.02" y2="-19653" gradientUnits="userSpaceOnUse">
<stop stop-color="white"/>
<stop offset="1" stop-color="#81C4DB"/>
</linearGradient>
<linearGradient id="paint3_linear_71_71" x1="5431.91" y1="-18451" x2="5581.24" y2="-19031.7" gradientUnits="userSpaceOnUse">
<stop stop-color="white"/>
<stop offset="1" stop-color="#81C4DB"/>
</linearGradient>
<linearGradient id="paint4_linear_71_71" x1="4410.08" y1="-17806.4" x2="4537.08" y2="-18392.2" gradientUnits="userSpaceOnUse">
<stop stop-color="white"/>
<stop offset="1" stop-color="#81C4DB"/>
</linearGradient>
<linearGradient id="paint5_linear_71_71" x1="3413.72" y1="-16835.5" x2="3515.12" y2="-17415.8" gradientUnits="userSpaceOnUse">
<stop stop-color="white"/>
<stop offset="1" stop-color="#81C4DB"/>
</linearGradient>
<linearGradient id="paint6_linear_71_71" x1="2534.14" y1="-16022.5" x2="2610.24" y2="-16606.6" gradientUnits="userSpaceOnUse">
<stop stop-color="white"/>
<stop offset="1" stop-color="#81C4DB"/>
</linearGradient>
<linearGradient id="paint7_linear_71_71" x1="1702.26" y1="-14900.5" x2="1750.09" y2="-15477.3" gradientUnits="userSpaceOnUse">
<stop stop-color="white"/>
<stop offset="1" stop-color="#81C4DB"/>
</linearGradient>
<linearGradient id="paint8_linear_71_71" x1="973.761" y1="-13934.5" x2="992.649" y2="-14512.9" gradientUnits="userSpaceOnUse">
<stop stop-color="white"/>
<stop offset="1" stop-color="#81C4DB"/>
</linearGradient>
<linearGradient id="paint9_linear_71_71" x1="151.36" y1="-12691.9" x2="139.258" y2="-13260.1" gradientUnits="userSpaceOnUse">
<stop stop-color="white"/>
<stop offset="1" stop-color="#81C4DB"/>
</linearGradient>
<linearGradient id="paint10_linear_71_71" x1="-550.213" y1="-11575.4" x2="-595.097" y2="-12141.7" gradientUnits="userSpaceOnUse">
<stop stop-color="white"/>
<stop offset="1" stop-color="#81C4DB"/>
</linearGradient>
<linearGradient id="paint11_linear_71_71" x1="-1113.65" y1="-10215.4" x2="-1192.18" y2="-10767.7" gradientUnits="userSpaceOnUse">
<stop stop-color="white"/>
<stop offset="1" stop-color="#81C4DB"/>
</linearGradient>
<linearGradient id="paint12_linear_71_71" x1="-1566.25" y1="-8991.56" x2="-1681.21" y2="-9537.42" gradientUnits="userSpaceOnUse">
<stop stop-color="white"/>
<stop offset="1" stop-color="#81C4DB"/>
</linearGradient>
<linearGradient id="paint13_linear_71_71" x1="-1889.51" y1="-7731.13" x2="-2042.8" y2="-8267.37" gradientUnits="userSpaceOnUse">
<stop stop-color="white"/>
<stop offset="1" stop-color="#81C4DB"/>
</linearGradient>
<linearGradient id="paint14_linear_71_71" x1="-2139.49" y1="-6281.42" x2="-2328.97" y2="-6794.93" gradientUnits="userSpaceOnUse">
<stop stop-color="white"/>
<stop offset="1" stop-color="#81C4DB"/>
</linearGradient>
<linearGradient id="paint15_linear_71_71" x1="-2228.78" y1="-5156.43" x2="-2462.51" y2="-5662.61" gradientUnits="userSpaceOnUse">
<stop stop-color="white"/>
<stop offset="1" stop-color="#81C4DB"/>
</linearGradient>
<linearGradient id="paint16_linear_71_71" x1="-2137.82" y1="-3938.79" x2="-2412.53" y2="-4423.83" gradientUnits="userSpaceOnUse">
<stop stop-color="white"/>
<stop offset="1" stop-color="#81C4DB"/>
</linearGradient>
<linearGradient id="paint17_linear_71_71" x1="-1918.53" y1="-2945.52" x2="-2239.44" y2="-3413.91" gradientUnits="userSpaceOnUse">
<stop stop-color="white"/>
<stop offset="1" stop-color="#81C4DB"/>
</linearGradient>
<linearGradient id="paint18_linear_71_71" x1="-1680.55" y1="-1977.17" x2="-2047.53" y2="-2423.68" gradientUnits="userSpaceOnUse">
<stop stop-color="white"/>
<stop offset="1" stop-color="#81C4DB"/>
</linearGradient>
<linearGradient id="paint19_linear_71_71" x1="-1255.39" y1="-1210.34" x2="-1667.47" y2="-1630.02" gradientUnits="userSpaceOnUse">
<stop stop-color="white"/>
<stop offset="1" stop-color="#81C4DB"/>
</linearGradient>
<linearGradient id="paint20_linear_71_71" x1="-917.273" y1="-567.109" x2="-1380.37" y2="-962.263" gradientUnits="userSpaceOnUse">
<stop stop-color="white"/>
<stop offset="1" stop-color="#81C4DB"/>
</linearGradient>
<linearGradient id="paint21_linear_71_71" x1="-490.226" y1="-122.042" x2="-1002.52" y2="-487.511" gradientUnits="userSpaceOnUse">
<stop stop-color="white"/>
<stop offset="1" stop-color="#81C4DB"/>
</linearGradient>
<linearGradient id="paint22_linear_71_71" x1="-89.5456" y1="225.121" x2="-648.43" y2="-106.249" gradientUnits="userSpaceOnUse">
<stop stop-color="white"/>
<stop offset="1" stop-color="#81C4DB"/>
</linearGradient>
<linearGradient id="paint23_linear_71_71" x1="216.419" y1="452.455" x2="-395.248" y2="154.06" gradientUnits="userSpaceOnUse">
<stop stop-color="white"/>
<stop offset="1" stop-color="#81C4DB"/>
</linearGradient>
<linearGradient id="paint24_linear_71_71" x1="451.062" y1="557.892" x2="-220.164" y2="292.737" gradientUnits="userSpaceOnUse">
<stop stop-color="white"/>
<stop offset="1" stop-color="#81C4DB"/>
</linearGradient>
<linearGradient id="paint25_linear_71_71" x1="653.654" y1="592.799" x2="-74.4386" y2="365.238" gradientUnits="userSpaceOnUse">
<stop stop-color="white"/>
<stop offset="1" stop-color="#81C4DB"/>
</linearGradient>
<linearGradient id="paint26_linear_71_71" x1="804.29" y1="626.037" x2="22.2348" y2="439.768" gradientUnits="userSpaceOnUse">
<stop stop-color="white"/>
<stop offset="1" stop-color="#81C4DB"/>
</linearGradient>
<linearGradient id="paint27_linear_71_71" x1="896.307" y1="607.836" x2="53.2507" y2="463.914" gradientUnits="userSpaceOnUse">
<stop stop-color="white"/>
<stop offset="1" stop-color="#81C4DB"/>
</linearGradient>
<linearGradient id="paint28_linear_71_71" x1="962.302" y1="581.218" x2="60.9995" y2="482.85" gradientUnits="userSpaceOnUse">
<stop stop-color="white"/>
<stop offset="1" stop-color="#81C4DB"/>
</linearGradient>
<linearGradient id="paint29_linear_71_71" x1="998.534" y1="548.978" x2="31.5027" y2="498.309" gradientUnits="userSpaceOnUse">
<stop stop-color="white"/>
<stop offset="1" stop-color="#81C4DB"/>
</linearGradient>
<linearGradient id="paint30_linear_71_71" x1="1030" y1="515.111" x2="-5.26899e-05" y2="515.111" gradientUnits="userSpaceOnUse">
<stop stop-color="white"/>
<stop offset="1" stop-color="#81C4DB"/>
</linearGradient>
<clipPath id="clip0_71_71">
<rect width="1030" height="1184" fill="white" transform="matrix(-1 0 0 1 1030 0)"/>
</clipPath>
</defs>
</svg>
