<svg width="212" height="289" viewBox="0 0 212 289" fill="none" xmlns="http://www.w3.org/2000/svg">
<g clip-path="url(#clip0_357_35)">
<g opacity="0.25">
<path d="M134.029 110.803C134.029 110.803 135.369 116.302 139.511 117.28C143.653 118.259 141.215 120.215 141.094 121.314C140.973 122.414 142.069 124.367 141.703 126.69C141.546 127.698 141.502 128.91 141.61 129.979C142.139 129.34 142.694 128.935 143.142 128.992C144.51 129.162 145.877 129.507 146.049 126.933C146.22 124.361 146.218 124.189 152.031 125.217C157.845 126.246 157.503 118.529 158.359 119.557C161.615 123.474 162.803 120.586 162.634 118.701C162.462 116.813 162.976 116.47 163.319 116.985C163.661 117.5 164.686 118.872 165.54 117.5C166.397 116.128 166.054 117.157 167.422 119.044C168.79 120.929 170.158 119.044 169.815 116.128C169.473 113.212 172.037 110.81 174.775 110.81C177.513 110.81 180.246 107.894 180.246 106.694C180.246 105.493 179.221 103.95 180.589 103.95C181.956 103.95 182.641 103.608 182.641 101.893C182.641 100.177 181.956 99.1486 183.324 96.4045C184.692 93.6604 184.009 91.7753 184.178 88.1723C184.349 84.5716 186.574 84.0562 188.282 85.7718C189.99 87.4851 190.163 86.8003 192.556 86.8003C194.949 86.8003 194.267 85.4282 193.241 83.7126C192.216 81.997 191.017 77.7091 188.795 77.7091C186.574 77.7091 185.717 75.9935 184.178 75.9935C182.639 75.9935 182.297 75.8217 181.956 75.1345C181.616 74.4474 180.76 73.4212 180.075 73.2471C179.39 73.0753 178.707 74.7909 177.51 73.0753C176.314 71.3597 170.158 71.7033 167.424 71.5315C164.689 71.3597 162.124 72.2187 160.928 72.9035C159.731 73.5884 157.678 74.4474 156.996 73.7602C156.311 73.073 154.26 72.7317 152.55 73.2448C150.839 73.7602 149.303 74.2733 148.446 73.4166C147.59 72.5577 145.54 72.3882 144.854 72.3882C144.169 72.3882 142.975 73.932 141.776 71.8728C140.58 69.8159 138.698 70.5008 137.844 70.8443C136.99 71.1879 135.62 71.5292 134.424 71.1879C133.227 70.8443 132.202 70.5008 129.806 71.3597C127.411 72.2164 123.31 72.5599 121.428 71.5315C120.613 71.0848 119.702 71.252 118.807 71.4994C117.43 82.3016 119.757 96.4847 134.029 110.801V110.803Z" fill="#92C242"/>
<path d="M202.471 255.558C201.444 251.442 199.393 235.832 200.421 232.575C201.446 229.317 201.96 230.346 201.275 227.602C200.59 224.858 198.368 219.713 199.564 217.654C200.761 215.595 198.71 209.937 197.856 205.821C197.002 201.705 195.803 197.245 196.831 196.215C197.856 195.186 195.975 191.07 195.121 190.213C194.267 189.354 193.241 189.011 193.924 187.467C194.607 185.923 193.241 183.351 192.216 183.351C191.191 183.351 191.705 181.466 190.677 180.607C189.652 179.752 189.821 178.719 189.821 176.321C189.821 173.923 187.77 165.688 189.821 165.517C191.873 165.343 190.846 160.542 188.967 156.769C187.085 152.994 186.06 147.508 185.206 143.564C184.349 139.62 183.667 144.764 182.641 143.734C181.616 142.705 180.248 140.648 178.709 143.049C177.17 145.449 174.946 145.449 172.724 143.734C170.502 142.02 170.5 145.965 170.671 148.537C170.843 151.109 171.185 156.941 168.79 156.425C166.397 155.91 167.765 158.482 165.029 157.454C162.296 156.425 162.976 159.857 161.78 160.198C160.583 160.542 162.976 163.799 163.147 165.171C163.316 166.543 165.029 167.058 165.029 171.003C165.029 174.947 162.293 173.059 161.608 176.147C160.926 179.235 159.044 178.378 156.822 178.719C154.6 179.063 151.862 177.006 151.862 172.718C151.862 168.43 149.81 167.23 147.588 163.457C145.366 159.683 146.22 170.315 146.391 172.546C146.563 174.775 141.091 169.117 142.288 165.517C143.484 161.914 141.091 160.713 140.92 157.8C140.749 154.884 138.525 151.453 136.645 147.68C134.764 143.908 138.184 145.623 137.328 144.249C136.474 142.877 136.645 141.161 138.184 140.82C139.724 140.476 140.409 137.048 139.892 134.988C139.381 132.931 141.774 128.813 143.142 128.987C144.51 129.157 145.877 129.502 146.049 126.928C146.172 125.057 146.218 124.459 148.465 124.667C149.099 117.628 147.583 109.779 137.744 109.497C119.786 108.984 106.962 143.463 104.91 159.932C103.729 169.404 107.638 178.701 111.176 184.895C114.71 183.149 119.081 189.909 120.57 191.07C122.109 192.27 121.938 198.102 127.751 197.073C133.563 196.043 133.051 198.274 136.643 198.274C140.235 198.274 140.575 193.301 140.061 192.101C139.55 190.9 136.472 192.275 138.694 190.387C140.918 188.502 141.943 191.246 144.679 189.359C147.414 187.474 146.389 187.646 150.835 191.418C155.279 195.193 161.264 207.024 162.462 210.624C163.659 214.225 168.619 227.604 169.815 231.72C171.009 235.836 171.697 239.781 170.329 242.183C168.961 244.584 172.893 247.843 172.722 250.587C172.551 253.334 172.891 254.019 174.944 258.307C176.994 262.597 179.73 268.767 180.415 271.34C181.1 273.912 184.176 281.116 186.057 282.488C187.939 283.86 189.99 289.007 189.99 289.007C189.99 289.007 188.451 285.232 188.279 282.488C188.108 279.746 185.544 275.456 185.544 274.256C185.544 273.055 185.372 272.196 184.859 270.655C184.347 269.111 179.559 267.739 182.466 264.995C185.372 262.251 181.269 258.135 183.833 257.106C186.398 256.078 184.518 252.99 185.884 253.162C187.252 253.336 186.738 253.506 188.62 251.618C190.501 249.733 191.869 251.962 193.065 254.875C194.262 257.793 194.945 255.049 197.68 255.734C200.416 256.421 199.048 260.709 200.587 261.394C203.403 262.649 203.494 259.679 202.469 255.562L202.471 255.558Z" fill="#F6B222"/>
<path d="M111.774 176.5C108.974 174.569 104.601 163.513 104.601 163.513C64.1268 158.494 62.7225 202.693 66.2071 232.428C69.155 231.132 71.5138 230.046 72.53 229.49C76.2909 227.433 78.3414 221.429 80.3943 224.173C85.9157 231.558 92.878 232.747 93.7298 229.661C94.5861 226.574 99.201 221.601 103.647 220.401C108.093 219.2 107.065 216.972 109.63 212.856C112.194 208.74 109.972 202.567 109.461 200.507C108.947 198.448 103.989 193.132 106.554 191.416C109.118 189.703 107.239 187.47 110.828 185.071C113.445 183.321 116.601 186.668 118.72 189.08C119.063 184.941 114.295 178.239 111.776 176.502L111.774 176.5Z" fill="#FCE82B"/>
<path d="M80.5724 204.484C81.9927 203.295 82.7006 199.5 81.0451 197.127C79.3895 194.754 78.4419 192.855 79.8622 190.954C81.2825 189.057 81.5177 186.92 81.0451 184.547C80.5724 182.174 81.9927 170.068 81.9927 170.068C83.9976 140.64 50.2319 116.002 50.2319 116.002H29.7765C29.8907 116.433 29.9592 116.926 29.9592 117.498C29.9592 118.355 30.8132 119.555 29.2764 120.07C27.7374 120.584 28.4201 122.471 28.4201 122.471C29.1029 123.156 30.1282 125.043 29.9592 128.99C29.7879 132.934 27.0523 133.791 24.6592 133.791C22.2662 133.791 22.4351 137.05 22.6064 139.107C22.7777 141.166 22.0949 141.679 21.4076 143.736C20.7248 145.793 22.7754 145.108 23.9719 146.652C25.1685 148.196 27.05 149.568 29.1006 150.768C31.1512 151.971 29.7856 153.171 30.1259 154.541C30.4684 155.913 29.7856 157.972 28.073 160.888C26.3627 163.801 29.7856 162.947 31.8362 164.66C33.8868 166.376 35.5971 164.489 37.8189 165.689C40.0407 166.891 37.3051 169.461 35.0833 172.721C32.8615 175.98 36.1086 180.609 37.6476 181.984C39.1867 183.354 39.5292 185.756 38.1614 186.441C36.7936 187.126 36.9649 188.329 37.6476 189.188C38.3304 190.044 38.3304 191.588 37.8189 192.445C37.3051 193.304 37.3051 194.16 37.9902 195.704C38.6729 197.248 39.8695 202.393 39.5292 204.624C39.1867 206.852 39.8695 209.94 40.8947 212.512C41.92 215.084 43.4591 220.059 42.6073 220.401C41.751 220.744 41.4085 221.945 41.9223 224.86C42.4361 227.776 41.751 227.776 41.0683 229.661C40.3855 231.549 39.8695 233.093 42.2648 237.894C43.7171 240.807 43.0321 241.758 42.8768 241.907C42.9567 241.847 43.2421 241.68 43.9729 241.494C46.7085 240.81 68.7645 231.549 72.5277 229.49C75.978 227.602 77.9898 222.412 79.8828 223.685C79.5768 220.561 79.0082 214.736 78.6771 210.893C78.2044 205.434 79.1498 205.673 80.5701 204.486L80.5724 204.484Z" fill="#A79EC6"/>
<path d="M65.7389 90.9826L57.7879 131.885C57.7879 131.885 57.1759 135.976 55.5455 138.429C53.9151 140.884 53.7096 142.316 55.7487 143.747C57.7879 145.179 58.8086 143.337 60.2335 145.179C61.6606 147.021 64.1063 150.088 66.3509 152.133C68.5933 154.179 67.3716 156.018 67.1661 158.063C66.9606 160.109 67.1661 160.723 69.002 163.176C70.8356 165.629 70.2237 168.288 71.4476 168.902C72.6693 169.516 71.4476 170.54 71.4476 171.765C71.4476 172.991 73.078 172.173 73.69 175.242C74.2997 178.309 75.7268 175.856 75.9324 178.106C76.1356 180.357 78.7867 180.765 79.8074 182.4C80.8258 184.036 84.2922 182.604 86.7378 180.969C89.1834 179.333 89.3889 170.744 92.0377 174.221C94.6888 177.698 95.7095 178.719 98.1551 177.698C100.601 176.676 100.397 173.609 102.434 175.245C104.473 176.88 106.104 174.019 107.531 173.403L108.958 172.789C108.958 172.789 108.755 171.154 109.979 168.288C111.203 165.425 109.367 163.38 110.182 162.768C110.997 162.154 110.794 160.927 109.979 159.495C109.164 158.063 110.997 153.155 113.037 153.155C115.076 153.155 115.073 152.747 114.258 149.884C113.443 147.021 112.628 145.793 114.464 144.975C116.3 144.158 117.93 142.316 117.318 140.477C116.706 138.637 113.037 136.796 115.688 135.978C118.339 135.16 122.62 135.774 122.62 133.319C122.62 130.863 121.602 130.863 124.863 130.863C128.123 130.863 127.514 129.635 128.735 128C129.959 126.365 130.569 123.909 129.754 122.478C128.939 121.046 129.144 117.775 136.28 115.933C136.28 115.933 134.444 114.502 136.89 112.663C139.335 110.821 138.726 109.596 137.91 107.958C137.095 106.322 136.89 105.505 138.114 104.483C139.335 103.459 138.723 99.3705 138.52 97.9366C138.317 96.5051 138.315 94.2557 136.89 94.0496C135.463 93.8457 136.074 92.618 136.074 91.3903C136.074 90.1625 134.239 90.5725 134.239 88.3232C134.239 86.0739 132.811 84.6423 130.366 84.8462C127.918 85.0501 127.306 83.2107 127.306 81.983C127.306 80.7553 125.879 77.8921 127.715 76.2567C128.42 75.6291 128.491 73.7943 128.313 71.7718C125.956 72.2917 122.958 72.3719 121.426 71.5336C119.547 70.5028 117.151 72.7338 115.612 71.7053C114.073 70.6769 112.192 72.0489 111.338 71.7053C110.481 71.3618 109.627 70.8487 107.405 72.2207C105.184 73.5928 97.8309 71.3641 95.6091 70.1638C93.3872 68.9636 83.2988 65.1888 81.5908 65.1888C79.8828 65.1888 79.3667 66.389 79.3667 62.9601C79.3667 59.5311 76.1196 60.9032 78.0012 59.7006C78.7068 59.2494 79.1224 58.5576 79.3781 57.6254L74.0987 56.8306L65.7389 90.9826Z" fill="#AFD5C0"/>
<path d="M37.0905 122.054C39.1091 122.239 42.0479 122.239 43.1485 125.554C44.2492 128.868 45.1671 131.631 53.6114 132.551C62.0557 133.472 60.7724 134.762 61.6903 136.42C62.6083 138.079 68.849 138.262 71.7879 138.079C74.7267 137.895 74.9094 136.789 73.2584 134.579C71.6052 132.368 70.3219 128.316 73.9914 127.395C77.6633 126.475 77.6633 125.554 77.2956 121.133C76.928 116.715 74.3568 108.979 75.2747 103.638C76.1927 98.2964 77.4783 95.1652 75.2747 91.8508C73.0712 88.5364 70.1346 83.1948 71.2376 77.6701C72.3382 72.1453 71.7879 69.7517 73.6238 68.8309C75.4597 67.9101 75.2747 66.806 75.2747 64.4124C75.2747 62.4196 75.9164 60.4337 78.3506 59.3938C79.8371 58.0539 79.7229 55.2525 79.8805 50.9509C80.0518 46.3194 79.3667 47.5196 78.515 42.8905C77.6587 38.259 79.7115 35.8585 80.223 34.83C80.7368 33.8016 80.3943 31.5706 78.1702 30.3704C75.9484 29.1701 76.6311 28.483 77.1449 26.7673C77.6587 25.0517 76.9736 24.3668 75.4346 23.6797C73.8955 22.9925 74.2358 22.6512 73.2105 20.4225C72.1852 18.1915 70.6461 21.7946 69.6209 22.823C68.5956 23.8515 68.4243 25.7389 69.2806 26.9391C70.1346 28.1394 67.9128 29.6832 67.5703 30.3704C67.2278 31.0552 67.2301 31.7424 66.2048 31.0575C65.1795 30.3704 64.6657 30.0291 63.2979 30.3704C61.9301 30.7139 61.7589 30.5422 61.2451 30.0268C60.7336 29.5114 60.3888 28.8265 58.852 29.3396C55.0363 30.6154 54.9198 26.4238 53.5521 25.9107C52.1842 25.3976 50.1314 21.9664 50.1314 21.451C50.1314 20.9356 50.6452 18.8787 49.4486 18.8787C48.2521 18.8787 47.0556 18.5351 48.0808 15.9628C49.1061 13.3906 47.3981 13.2188 47.0556 12.5316C46.713 11.8445 46.3728 10.4747 45.1763 10.9878C43.9797 11.5009 44.32 11.6727 42.7809 10.9878C41.2418 10.3006 41.5844 11.3291 40.5591 12.188C39.5338 13.0447 39.874 14.0732 40.7303 14.0732C41.5866 14.0732 41.7556 12.5293 43.6372 16.4736C45.5188 20.418 43.8085 20.4202 42.4384 19.9049C41.0706 19.3895 39.874 18.1893 38.335 18.8764C36.7959 19.5613 36.7959 18.1893 34.9166 17.6762C33.035 17.1631 33.204 16.8195 31.496 14.0754C29.7879 11.3314 29.2742 8.5873 26.3673 8.5873C23.4604 8.5873 22.2639 4.12762 20.7248 3.78403C19.1858 3.44045 20.0421 0.355092 18.672 0.0115107C17.3042 -0.332071 15.4249 4.98657 15.0824 6.69989C14.7398 8.41551 15.2536 8.93088 16.9639 7.90014C18.672 6.87169 20.211 9.10038 21.5811 9.78526C22.9489 10.4701 22.4351 12.3575 20.2133 13.2165C17.9915 14.0732 15.4272 15.9606 14.9134 17.848C14.3996 19.7354 12.349 20.592 10.4675 21.1051C8.58588 21.6205 7.04682 23.3361 7.73186 25.2212C8.41462 27.1063 7.04682 28.4807 6.02154 28.996C4.99626 29.5114 3.97098 31.2247 4.48247 33.6275C4.99626 36.028 4.31121 36.3716 4.31121 37.5718C4.31121 38.7721 5.33878 41.1726 7.90312 40.6595C10.4675 40.1441 12.5203 41.5184 12.6893 42.5469C12.8605 43.5753 13.8881 44.4343 15.2536 44.9474C16.6214 45.4627 20.7248 51.464 21.4076 52.8383C22.0903 54.2103 22.7754 54.7234 23.8007 54.7234C24.8259 54.7234 24.8282 54.5516 26.5363 55.5801C28.2466 56.6085 29.9569 55.2365 31.496 54.8952C33.035 54.5516 34.9166 56.0954 34.7431 58.6677C34.5741 61.24 38.3327 63.6428 40.2166 64.6712C42.0981 65.6997 42.6096 66.0433 41.4108 66.7281C40.2166 67.413 40.0453 67.7589 39.7005 69.4722C39.358 71.1855 37.1362 71.3596 36.4534 69.9876C35.7684 68.6155 35.7684 68.7873 34.2293 69.4722C31.7106 70.5946 28.073 68.1002 26.8788 68.7873C25.6822 69.4722 24.657 69.8158 22.4329 68.6155C20.211 67.4153 17.1329 68.9591 18.1605 71.3596C19.1858 73.7601 18.3295 74.6168 17.6467 77.0195C16.9639 79.42 16.4502 80.4508 15.0824 81.1357C13.7146 81.8205 14.0571 81.9923 14.0571 83.3643C14.0571 87.65 10.2962 82.5077 9.27092 80.6203C8.24564 78.7329 5.50775 80.6203 6.1928 83.8774C6.87556 87.1346 2.94341 90.9094 0.376789 93.6535C-2.18755 96.3975 9.09738 105.486 10.4652 107.374C11.833 109.259 14.0548 109.087 16.4502 109.087C18.8455 109.087 20.5536 108.744 21.5788 110.803C22.6041 112.862 24.657 113.375 26.196 113.375C27.7351 113.375 29.9569 114.122 29.9569 117.491C29.9569 118.332 30.7675 119.502 29.3404 120.031C30.1624 120.336 30.8132 120.698 31.2128 121.126C33.784 123.891 35.0696 121.864 37.0882 122.047L37.0905 122.054Z" fill="#EFB4C9"/>
<path d="M115.226 192.628C115.226 192.628 115.845 194.724 117.935 195.965C120.024 197.207 119.716 195.887 120.798 198.991C121.88 202.095 124.28 205.354 122.965 210.4C121.65 215.444 120.41 218.859 119.56 219.48C118.709 220.101 117.007 223.516 115.229 223.129C113.448 222.742 113.603 221.809 113.836 220.412C114.069 219.015 113.603 218.083 112.673 217.228C111.744 216.376 111.203 214.356 112.055 213.348C112.906 212.338 114.61 207.294 114.066 203.18C113.523 199.067 110.659 197.823 110.041 197.36C109.422 196.895 108.495 196.274 109.191 194.334C109.888 192.394 110.274 191.851 110.274 190.763C110.274 189.675 111.278 187.426 112.596 188.358C113.911 189.288 114.53 188.28 115.226 192.628Z" fill="#9AD5EB"/>
<path d="M131.09 215.991C131.09 215.991 132.019 209.862 131.708 208.387C131.4 206.912 131.4 204.195 133.024 204.582C134.65 204.969 135.113 206.758 135.887 208.233C136.661 209.706 137.125 211.724 135.732 214.519C134.339 217.313 132.172 220.185 130.857 220.108C129.541 220.032 130.393 217.315 131.09 215.994V215.991Z" fill="#9AD5EB"/>
<path d="M147.339 201.787C147.339 201.787 146.875 199.614 148.268 198.372C149.661 197.131 150.435 197.985 150.976 199.302C151.518 200.622 155.155 207.376 153.299 207.997C151.442 208.616 147.88 204.268 147.339 201.787Z" fill="#9AD5EB"/>
</g>
<path d="M109.481 64.5176C71.4773 64.5176 40.6664 95.4216 40.6664 133.545C40.6664 171.669 71.475 202.573 109.481 202.573C147.487 202.573 178.296 171.669 178.296 133.545C178.296 95.4216 147.487 64.5176 109.481 64.5176ZM109.481 69.4858C143.863 69.4858 171.895 96.7432 173.284 130.891H45.6786C47.067 96.7432 75.0989 69.4858 109.481 69.4858ZM45.69 136.544H106.577V197.539C73.6443 196.061 47.2063 169.566 45.69 136.544ZM112.212 197.545V136.544H173.27C171.751 169.624 145.222 196.15 112.212 197.545Z" fill="white"/>
<path d="M155.97 155.34H142.863V142.194H132.362V155.34H119.257V165.874H132.362V179.022H142.863V165.874H155.97V155.34Z" fill="#EA2D2E"/>
<path d="M28.6485 215.918L23.4307 229.954L29.1622 247.005H19.7498L16.0049 233.679V247.005H6.84586V215.918H16.0026V227.996L20.0695 215.918H28.6508H28.6485Z" fill="white"/>
<path d="M39.2118 215.918V222.909C39.9699 222.293 40.7897 221.83 41.6711 221.521C42.5525 221.211 43.4956 221.058 44.5026 221.058C46.0463 221.058 47.3638 221.404 48.4508 222.096C49.5377 222.787 50.1999 223.584 50.4419 224.487C50.6817 225.389 50.8027 227.039 50.8027 229.432V247.007H42.0296V229.052C42.0296 227.565 41.9429 226.61 41.7716 226.189C41.6003 225.765 41.2167 225.554 40.6207 225.554C40.0681 225.554 39.6959 225.772 39.5018 226.207C39.3077 226.642 39.2118 227.508 39.2118 228.802V247.007H30.4387V215.92H39.2118V215.918Z" fill="white"/>
<path d="M73.9572 221.507V247.007H65.0265L65.1841 244.882C64.5721 245.741 63.8163 246.384 62.9188 246.813C62.0214 247.241 60.9916 247.456 59.8247 247.456C58.498 247.456 57.3974 247.25 56.5228 246.842C55.6483 246.432 55.002 245.887 54.5887 245.209C54.1731 244.531 53.9151 243.823 53.8124 243.086C53.7096 242.351 53.6594 240.887 53.6594 238.697V221.507H62.4325V238.864C62.4325 240.853 62.5033 242.03 62.6448 242.403C62.7864 242.774 63.17 242.96 63.798 242.96C64.4693 242.96 64.8689 242.767 64.9945 242.383C65.1201 241.998 65.1841 240.761 65.1841 238.672V221.504H73.9572V221.507Z" fill="white"/>
<path d="M96.0224 221.507L92.4373 231.689L97.1116 247.008H88.6262L85.8723 235.912L85.8404 247.008H77.0672V215.92H85.8404L85.8723 228.974L88.6262 221.507H96.0224Z" fill="white"/>
<path d="M118.542 221.507V247.007H109.611L109.769 244.882C109.157 245.741 108.401 246.384 107.504 246.813C106.606 247.241 105.576 247.456 104.41 247.456C103.083 247.456 101.982 247.25 101.108 246.842C100.233 246.432 99.5869 245.887 99.1736 245.209C98.758 244.531 98.4999 243.823 98.3972 243.086C98.2944 242.351 98.2442 240.887 98.2442 238.697V221.507H107.017V238.864C107.017 240.853 107.088 242.03 107.23 242.403C107.371 242.774 107.755 242.96 108.383 242.96C109.054 242.96 109.454 242.767 109.582 242.383C109.707 241.998 109.771 240.761 109.771 238.672V221.504H118.544L118.542 221.507Z" fill="white"/>
<path d="M130.297 221.507L130.169 223.939C130.852 222.98 131.665 222.258 132.61 221.777C133.556 221.298 134.629 221.056 135.835 221.056C138.189 221.056 140.041 222.018 141.393 223.937C142.13 222.977 142.961 222.256 143.889 221.775C144.816 221.296 145.843 221.053 146.971 221.053C148.462 221.053 149.695 221.374 150.673 222.013C151.65 222.654 152.276 223.438 152.55 224.368C152.824 225.295 152.963 226.802 152.963 228.889V247.003H144.446V230.376C144.446 228.197 144.363 226.848 144.197 226.328C144.03 225.808 143.644 225.55 143.037 225.55C142.429 225.55 142.014 225.806 141.833 226.319C141.653 226.832 141.564 228.184 141.564 230.376V247.003H133.047V230.797C133.047 228.298 132.976 226.798 132.837 226.299C132.697 225.799 132.311 225.55 131.681 225.55C131.284 225.55 130.946 225.68 130.669 225.944C130.391 226.207 130.238 226.528 130.208 226.903C130.179 227.281 130.165 228.085 130.165 229.315V247H121.647V221.5H130.293L130.297 221.507Z" fill="white"/>
<path d="M175.923 230.465V236.705C175.923 238.995 175.793 240.676 175.531 241.744C175.268 242.813 174.709 243.812 173.852 244.737C172.996 245.665 171.895 246.35 170.553 246.792C169.21 247.234 167.666 247.454 165.924 247.454C163.979 247.454 162.33 247.264 160.98 246.888C159.629 246.51 158.58 245.94 157.834 245.18C157.085 244.419 156.553 243.498 156.233 242.415C155.913 241.334 155.753 239.712 155.753 237.547V231.019C155.753 228.651 156.043 226.8 156.626 225.469C157.206 224.139 158.252 223.069 159.763 222.263C161.273 221.456 163.204 221.053 165.556 221.053C167.532 221.053 169.226 221.312 170.642 221.832C172.057 222.352 173.149 223.025 173.921 223.857C174.69 224.688 175.216 225.545 175.499 226.429C175.782 227.313 175.923 228.658 175.923 230.46V230.465ZM167.15 228.534C167.15 227.226 167.068 226.402 166.906 226.063C166.744 225.724 166.394 225.552 165.86 225.552C165.326 225.552 164.97 225.721 164.791 226.063C164.613 226.404 164.524 227.226 164.524 228.534V240.056C164.524 241.263 164.613 242.046 164.791 242.413C164.97 242.777 165.317 242.96 165.837 242.96C166.358 242.96 166.723 242.793 166.895 242.461C167.064 242.126 167.15 241.409 167.15 240.305V228.534Z" fill="white"/>
<path d="M187.692 221.507L187.565 223.837C188.204 222.911 188.987 222.217 189.91 221.752C190.835 221.289 191.901 221.058 193.109 221.058C194.623 221.058 195.858 221.372 196.819 222C197.781 222.627 198.397 223.42 198.674 224.373C198.95 225.325 199.089 226.917 199.089 229.144V247.008H190.316V229.341C190.316 227.586 190.25 226.516 190.115 226.132C189.983 225.747 189.613 225.554 189.005 225.554C188.368 225.554 187.969 225.777 187.807 226.219C187.645 226.661 187.562 227.843 187.562 229.764V247.008H178.789V221.507H187.69H187.692Z" fill="white"/>
<path d="M211.123 215.918V219.965H202.094V215.918H211.123ZM211.123 221.507V247.007H202.094V221.507H211.123Z" fill="white"/>
<path d="M90.6973 157.482C87.7516 159.665 86.3861 160.052 83.3537 164.461C81.9014 162.191 79.8531 159.365 73.1077 160.778C76.7795 160.863 79.7252 160.437 81.689 165.487C81.9447 166.388 81.8169 167.029 81.0062 168.699C80.1956 170.368 77.6336 177.135 82.4996 186.961L87.8795 186.32C87.8795 186.32 74.0485 172.574 90.6973 157.48V157.482ZM84.1734 152.072C82.6869 153.125 78.451 156.692 82.8581 161.282C82.8581 161.282 88.681 159.056 84.1734 152.072ZM77.3413 157.003C77.3413 157.003 82.9495 154.275 77.8528 147.713C76.4644 148.892 72.5528 152.816 77.3413 157.003ZM87.3132 150.125C87.3132 150.125 90.8526 144.98 83.1938 141.787C82.5636 143.5 81.0884 148.847 87.3132 150.125ZM73.0415 156.788C73.0415 156.788 73.2242 150.539 65.0653 152.04C65.4672 153.822 67.125 159.113 73.0415 156.788ZM92.8849 147.431C91.2202 148.169 86.3633 150.826 89.7794 156.199C89.7794 156.199 95.9265 155.171 92.8849 147.431ZM103.503 147.672C95.4812 147.314 96.3626 153.522 96.3626 153.522C102.482 155.201 103.078 149.774 103.503 147.672ZM88.7769 165.19C93.2594 169.494 96.4608 165.274 97.8697 163.733C91.0832 159.621 88.7769 165.19 88.7769 165.19ZM68.4289 162.927C69.0477 164.644 71.3494 169.688 76.9302 166.646C76.9302 166.646 76.3388 160.423 68.4289 162.927ZM93.216 159.067C97.6984 163.371 100.9 159.152 102.309 157.61C95.5223 153.499 93.216 159.067 93.216 159.067ZM60.4892 165.409C61.108 167.127 63.4098 172.171 68.9906 169.129C68.9906 169.129 68.3992 162.906 60.4892 165.409ZM67.8831 173.69C69.4541 174.611 74.4413 177.009 76.7887 171.085C76.7887 171.085 72.361 166.685 67.8831 173.69ZM67.536 161.962C67.536 161.962 67.3008 155.716 59.2607 157.757C59.7791 159.507 61.7885 164.677 67.536 161.962Z" fill="#008049"/>
<path d="M108.766 125.1L108.773 124.968L109.831 103.402L127.413 92.8862L137.721 109.037" fill="#00A9BC"/>
<path d="M134.711 112.283L137.036 115.478L108.901 125.162L134.613 112.283" fill="#009DD5"/>
<path d="M134.679 118.206L137.002 121.967L109.1 125.33L134.547 118.14" fill="#ADD9EA"/>
<path d="M79.8599 115.826L82.1594 112.188L107.727 125.1L79.8599 115.826Z" fill="#009DD5"/>
<path d="M79.9924 121.861L82.2028 117.956L107.287 125.057L79.9924 121.861Z" fill="#ADD9EA"/>
<path d="M79.1521 108.993L89.6355 92.8862L107.109 103.581L108.26 125.057L79.1521 108.993Z" fill="#00A9BC"/>
<path d="M95.8899 94.8357C97.9405 89.8583 102.756 86.3652 108.369 86.3652C113.982 86.3652 118.695 89.785 120.782 94.6799" stroke="#00A8DE" stroke-width="1.64"/>
<path d="M86.6396 87.1621L94.8327 91.8531" stroke="#00A8DE" stroke-width="1.64"/>
<path d="M94.4673 86.1636L98.3173 89.8239" stroke="#00A8DE" stroke-width="1.64"/>
<path d="M95.5291 77.9106L100.539 86.4635" stroke="#00A8DE" stroke-width="1.64"/>
<path d="M103.293 80.9043L104.588 85.8977" stroke="#00A8DE" stroke-width="1.64"/>
<path d="M108.403 74.3833L108.337 84.267" stroke="#00A8DE" stroke-width="1.64"/>
<path d="M113.212 80.9707L112.219 86.0969" stroke="#00A8DE" stroke-width="1.64"/>
<path d="M120.976 77.7437L116.032 86.4958" stroke="#00A8DE" stroke-width="1.64"/>
<path d="M122.205 85.8979L118.654 89.7919" stroke="#00A8DE" stroke-width="1.64"/>
<path d="M130.101 87.0293L121.707 91.7868" stroke="#00A8DE" stroke-width="1.64"/>
<path d="M80.3006 124.4C80.3006 124.4 79.9033 124.001 81.8922 124.068C83.8834 124.134 100.306 125.598 108.335 125.332C116.364 125.066 134.513 124.134 135.805 124.033C136.801 124.1 138.525 124.899 133.88 124.697C129.169 124.764 112.315 125.895 101.599 125.529C90.8823 125.162 81.4264 124.83 80.2984 124.397L80.3006 124.4Z" fill="#34328F"/>
<path d="M212 208.181H6.06947V210.494H212V208.181Z" fill="white"/>
<path d="M212 254.683H6.06947V256.997H212V254.683Z" fill="white"/>
</g>
<defs>
<clipPath id="clip0_357_35">
<rect width="212" height="289" fill="white"/>
</clipPath>
</defs>
</svg>
